<svg width="30" height="22" viewBox="0 0 30 22" fill="none" xmlns="http://www.w3.org/2000/svg">
    <path d="M25.2 9.62188C25.3922 9.12031 25.5 8.57187 25.5 8C25.5 5.51562 23.4844 3.5 21 3.5C20.0766 3.5 19.2141 3.78125 18.5016 4.25937C17.2031 2.00937 14.7797 0.5 12 0.5C7.85625 0.5 4.5 3.85625 4.5 8C4.5 8.12656 4.50469 8.25313 4.50937 8.37969C1.88437 9.30313 0 11.8062 0 14.75C0 18.4766 3.02344 21.5 6.75 21.5H24C27.3141 21.5 30 18.8141 30 15.5C30 12.5984 27.9375 10.175 25.2 9.62188ZM18.4406 12.5H15.375V17.75C15.375 18.1625 15.0375 18.5 14.625 18.5H12.375C11.9625 18.5 11.625 18.1625 11.625 17.75V12.5H8.55938C7.88906 12.5 7.55625 11.6938 8.02969 11.2203L12.9703 6.27969C13.2609 5.98906 13.7391 5.98906 14.0297 6.27969L18.9703 11.2203C19.4438 11.6938 19.1062 12.5 18.4406 12.5Z" fill="#B8CDD7"/>
</svg>
